<svg width="12" height="16" viewBox="0 0 12 16" fill="none" xmlns="http://www.w3.org/2000/svg">
<path d="M0.46 16V14.32C1.51333 13.48 2.50667 12.6733 3.44 11.9C4.37333 11.1133 5.18667 10.36 5.88 9.64C6.58667 8.90667 7.13333 8.20667 7.52 7.54C7.92 6.87333 8.12 6.24667 8.12 5.66C8.12 5.16667 8.00667 4.74 7.78 4.38C7.56667 4.02 7.26667 3.74 6.88 3.54C6.49333 3.34 6.05333 3.24 5.56 3.24C4.86667 3.24 4.24667 3.41333 3.7 3.76C3.15333 4.09333 2.58 4.58 1.98 5.22L0.26 3.54C1.02 2.67333 1.86 2.02 2.78 1.58C3.71333 1.12667 4.68667 0.899999 5.7 0.899999C6.72667 0.899999 7.63333 1.08 8.42 1.44C9.22 1.8 9.84667 2.32667 10.3 3.02C10.7533 3.71333 10.98 4.56 10.98 5.56C10.98 6.28 10.8267 6.98667 10.52 7.68C10.2267 8.36 9.81333 9.03333 9.28 9.7C8.76 10.3667 8.14667 11.0267 7.44 11.68C6.73333 12.3333 5.98667 13 5.2 13.68C5.6 13.6533 5.97333 13.6267 6.32 13.6C6.68 13.56 7.04 13.54 7.4 13.54H11.62V16H0.46Z" fill="#4169E1"/>
</svg>
