<svg width="13" height="17" viewBox="0 0 13 17" fill="none" xmlns="http://www.w3.org/2000/svg">
<path d="M6.9 16.26C4.08 16.26 2.16 15.06 0.96 13.7L2.42 11.84C3.52 13.06 5.12 13.88 6.7 13.88C8.36 13.88 9.52 13.08 9.52 11.84C9.52 10.4 8.38 9.48 4.8 9.48V7.36C7.94 7.36 9.16 6.34 9.16 5.1C9.16 4.04 8.32 3.24 6.64 3.24C5.34 3.24 4.04 3.78 2.8 5.04L1.26 3.26C2.82 1.8 4.7 0.899999 6.76 0.899999C9.94 0.899999 11.92 2.48 11.92 4.8C11.92 6.5 11.02 7.72 9.36 8.26V8.34C11.06 8.74 12.3 10.06 12.3 12.08C12.3 14.66 9.84 16.26 6.9 16.26Z" fill="#4169E1"/>
</svg>
