<svg width="288" height="134" viewBox="0 0 288 134" fill="none" xmlns="http://www.w3.org/2000/svg">
<path d="M127.655 99.3785L151.323 94.5591L151.389 94.5457L151.456 94.5502L170.201 95.8171L170.304 95.8241L170.396 95.8717L188.022 104.965L188.073 104.991L188.116 105.027L200.405 115.427L210.16 71.3738L199.132 55.9197L180.764 48.4313L157.999 46.8212L137.413 55.3056L127.655 99.3785Z" fill="white" stroke="black"/>
<path d="M145.403 66.6117L161.066 62.5823L174.424 63.2331L187.393 68.4114L197.13 76.9115" stroke="black" stroke-width="3"/>
<path d="M143.592 75.9829L159.255 71.9535L172.613 72.6043L185.582 77.7826L195.319 86.2827" stroke="black" stroke-width="3"/>
<path d="M141.401 85.8783L157.064 81.8489L170.422 82.4997L183.391 87.678L193.128 96.1781" stroke="black" stroke-width="3"/>
<path d="M201.369 115.7L225.037 110.881L225.103 110.867L225.171 110.872L243.916 112.139L244.019 112.146L244.111 112.193L261.737 121.286L261.787 121.312L261.831 121.349L274.12 131.749L283.874 87.6955L272.847 72.2415L254.479 64.7531L231.714 63.143L211.128 71.6274L201.369 115.7Z" fill="white" stroke="black"/>
<path d="M219.118 82.9334L234.781 78.9041L248.138 79.5549L261.107 84.7332L270.844 93.2333" stroke="black" stroke-width="3"/>
<path d="M217.307 92.3046L232.97 88.2753L246.328 88.9261L259.297 94.1044L269.033 102.604" stroke="black" stroke-width="3"/>
<path d="M215.116 102.2L230.779 98.1707L244.137 98.8215L257.106 104L266.842 112.5" stroke="black" stroke-width="3"/>
<path d="M129.206 98.7199L166.941 100.36L183.76 108.337L200.579 116.314" stroke="black"/>
<path d="M200.567 116.311L240.036 118.783L274.135 132.6" stroke="black"/>
<path d="M89.9727 41.7074V41.8145L89.9954 41.9191C94.707 63.6755 91.3652 83.8803 84.1822 98.6171C76.9635 113.427 66.0292 122.443 55.7033 122.443C50.6298 122.443 44.6593 119.253 38.4603 113.858C32.2992 108.495 26.0716 101.092 20.5018 92.9823C14.9347 84.8762 10.0479 76.0968 6.55658 68.002C3.05321 59.8792 1 52.5478 1 47.3058C1 36.8349 8.16974 25.822 18.222 17.3635C28.2602 8.91689 40.9162 3.23926 51.5046 3.23926C72.7499 3.23926 89.9727 20.462 89.9727 41.7074Z" fill="#D2B48C" stroke="black" stroke-width="2"/>
<circle cx="52.9041" cy="26.5921" r="8.11757" fill="#FF6347"/>
<circle cx="30.5109" cy="37.2289" r="8.11757" fill="#FFFF00"/>
<circle cx="26.0322" cy="58.5025" r="8.11757" fill="#4169E1"/>
<path d="M42.6225 79.149C42.6225 83.6322 38.9882 87.2665 34.5049 87.2665C30.0217 87.2665 26.3874 83.6322 26.3874 79.149C26.3874 74.6658 30.0217 71.0314 34.5049 71.0314C38.9882 71.0314 42.6225 74.6658 42.6225 79.149Z" fill="#008000"/>
<g filter="url(#filter0_d_0_1)">
<rect x="90.9516" y="75.3392" width="12.559" height="70.3304" transform="rotate(-141.529 90.9516 75.3392)" fill="white"/>
<rect x="90.9516" y="75.3392" width="12.559" height="70.3304" transform="rotate(-141.529 90.9516 75.3392)" stroke="black"/>
</g>
<path d="M58.7745 86.9447L64.6528 82.7458L67.172 75.8324L73.89 70.1497L80.0277 66.6869L91.5371 75.8324L85.3665 82.7458L77.8088 86.9446L68.5716 88.3441L58.7745 86.9447Z" fill="black"/>
<defs>
<filter id="filter0_d_0_1" x="76.4164" y="11.7601" width="62.9915" height="72.2816" filterUnits="userSpaceOnUse" color-interpolation-filters="sRGB">
<feFlood flood-opacity="0" result="BackgroundImageFix"/>
<feColorMatrix in="SourceAlpha" type="matrix" values="0 0 0 0 0 0 0 0 0 0 0 0 0 0 0 0 0 0 127 0" result="hardAlpha"/>
<feOffset dy="4"/>
<feGaussianBlur stdDeviation="2"/>
<feComposite in2="hardAlpha" operator="out"/>
<feColorMatrix type="matrix" values="0 0 0 0 0 0 0 0 0 0 0 0 0 0 0 0 0 0 0.25 0"/>
<feBlend mode="normal" in2="BackgroundImageFix" result="effect1_dropShadow_0_1"/>
<feBlend mode="normal" in="SourceGraphic" in2="effect1_dropShadow_0_1" result="shape"/>
</filter>
</defs>
</svg>
