<svg width="220" height="227" viewBox="0 0 220 227" fill="none" xmlns="http://www.w3.org/2000/svg">
<circle cx="111" cy="216" r="10" fill="#F0E68C" stroke="black" stroke-width="2"/>
<path d="M20.6323 215L45.6126 166H178.871L202.41 215H20.6323Z" fill="#696969" stroke="black" stroke-width="2"/>
<path d="M32.5 202.752L56.2862 192.903L56.3448 192.879L56.4077 192.87L76.3761 190.054L76.4717 190.041L76.5653 190.064L97.1779 195.132L97.2301 195.144L97.2784 195.168L112.662 202.699V157.562L97.4876 144.85L76.4408 141.505L52.1471 144.858L32.5 157.601V202.752Z" fill="white" stroke="black"/>
<path d="M43.5508 166.901L59.0541 159.581L73.2252 157.329L88.0405 159.581L100.235 165.775" stroke="black" stroke-width="3"/>
<path d="M43.828 176.442L59.3313 169.122L73.5025 166.87L88.3178 169.122L100.513 175.316" stroke="black" stroke-width="3"/>
<path d="M43.828 186.577L59.3313 179.257L73.5025 177.005L88.3178 179.257L100.513 185.451" stroke="black" stroke-width="3"/>
<path d="M113.662 202.752L137.448 192.903L137.507 192.879L137.57 192.87L157.538 190.054L157.634 190.041L157.727 190.064L178.34 195.132L178.392 195.144L178.441 195.168L193.824 202.699V157.562L178.65 144.85L157.603 141.505L133.309 144.858L113.662 157.601V202.752Z" fill="white" stroke="black"/>
<path d="M124.713 166.901L140.216 159.581L154.387 157.329L169.203 159.581L181.398 165.775" stroke="black" stroke-width="3"/>
<path d="M124.99 176.442L140.493 169.122L154.665 166.87L169.48 169.122L181.675 175.316" stroke="black" stroke-width="3"/>
<path d="M124.99 186.577L140.493 179.257L154.665 177.005L169.48 179.257L181.675 185.451" stroke="black" stroke-width="3"/>
<path d="M34.0127 201.752L74 195.196L93.5063 199.348L113.013 203.5" stroke="black"/>
<path d="M113 203.5L155 197.381L194 203.5" stroke="black"/>
<circle cx="110.323" cy="158.213" r="8.78707" fill="#D9D9D9" stroke="black" stroke-width="2"/>
<path d="M135.256 73.0951C135.256 86.1809 132.68 100.512 128.284 111.539C126.084 117.056 123.451 121.691 120.502 124.93C117.554 128.169 114.373 129.928 111.047 129.928C104.119 129.928 98.1775 126.024 93.3582 116.893C88.5168 107.719 84.9001 93.4123 82.68 72.987C81.1312 58.7381 94.346 46.8099 108.971 46.8099C123.488 46.8099 135.256 58.5782 135.256 73.0951Z" fill="#FFD700" stroke="black" stroke-width="2"/>
<rect x="96.1977" y="122.734" width="27.6578" height="34.7757" fill="#D9D9D9" stroke="black" stroke-width="2"/>
<rect x="95.1977" y="133.004" width="29.6578" height="1.18631" fill="black"/>
<rect x="95.1977" y="142.494" width="29.6578" height="1.18631" fill="black"/>
<path d="M104.424 120.449C104.424 113.922 105.144 107.792 105.144 101.351C105.144 98.1682 105.144 94.9853 105.144 91.8023C105.144 90.9651 105.007 88.2079 104.504 87.5785C104.3 87.3245 104.573 86.8871 104.343 86.6576C104.077 86.3914 103.611 86.7331 103.343 86.3974C103.056 86.0397 101.546 85.7968 101.02 85.4966C99.5663 84.6656 99.1387 83.6149 98.458 82.2536C97.6733 80.6841 96.1238 79.2863 94.9748 78.0097C93.605 76.4876 92.1805 70.723 95.2351 70.723C97.0275 70.723 98.2755 70.6605 99.5791 71.9641C100.649 73.0343 102.325 73.0075 103.423 73.8859C104.483 74.7341 105.992 75.0855 107.126 75.9678C107.706 76.4188 109.691 79.3486 110.109 78.9305C111 78.0394 110.764 77.0387 112.103 75.9678C112.908 75.3235 113.634 72.7599 114.693 72.5246C117.441 70.723 121.546 69.3029 123.441 72.5246C124.172 73.7674 124.602 74.9471 124.602 76.4883C124.602 78.0343 123.235 78.9761 122.483 79.9164C121.847 80.7111 120.981 82.3699 120.11 82.8822C119.308 85.9309 115.774 85.5325 114.693 86.3974C112.877 87.8505 113.792 91.3596 113.792 93.559C113.792 96.8668 113.071 101.248 113.792 103.049C113.792 104.821 113.792 106.634 113.792 108.378C113.792 109.999 113.792 111.621 113.792 113.242C113.792 114.864 113.792 116.485 113.792 118.107C113.792 119.704 114.693 118.832 114.693 120.449" stroke="black" stroke-width="2" stroke-linecap="round"/>
<path d="M123.856 78.014C121.781 78.014 118.836 77.4665 116.85 78.034C114.986 78.5664 112.589 79.095 110.524 79.095C109.305 79.095 108.292 79.4553 107.101 79.4553C106.032 79.4553 104.542 79.1826 103.517 79.4753C101.725 79.9873 99.0627 80.5363 97.1915 80.5363" stroke="black" stroke-width="2" stroke-linecap="round"/>
<rect x="104.688" y="12" width="4.15209" height="29.0646" rx="2.07605" fill="#FFD700"/>
<rect x="129.406" y="15.559" width="4.15209" height="29.0646" rx="2.07605" transform="rotate(18.6522 129.406 15.559)" fill="#FFD700"/>
<rect width="4.15209" height="29.0646" rx="2.07605" transform="matrix(-0.902757 0.43015 0.43015 0.902757 82.6067 15.9797)" fill="#FFD700"/>
<rect x="150.56" y="26.8289" width="4.15209" height="29.0646" rx="2.07605" transform="rotate(39.7527 150.56 26.8289)" fill="#FFD700"/>
<rect width="4.15209" height="29.0646" rx="2.07605" transform="matrix(-0.768811 0.639476 0.639476 0.768811 62.2074 29.2015)" fill="#FFD700"/>
<rect x="166.308" y="46.8167" width="4.15209" height="29.0646" rx="2.07605" transform="rotate(65.4071 166.308 46.8167)" fill="#FFD700"/>
<rect width="4.15209" height="29.0646" rx="2.07605" transform="matrix(-0.416168 0.909288 0.909288 0.416168 48.8801 47.5894)" fill="#FFD700"/>
<rect x="171.122" y="70.7224" width="4.15209" height="29.0646" rx="2.07605" transform="rotate(90 171.122 70.7224)" fill="#FFD700"/>
<rect x="72.0646" y="70.7224" width="4.15209" height="29.0646" rx="2.07605" transform="rotate(90 72.0646 70.7224)" fill="#FFD700"/>
<rect x="170.635" y="91.4331" width="4.15209" height="29.0646" rx="2.07605" transform="rotate(106.802 170.635 91.4331)" fill="#FFD700"/>
<rect width="4.15209" height="29.0646" rx="2.07605" transform="matrix(0.289062 0.95731 0.95731 -0.289062 47.1521 91.5802)" fill="#FFD700"/>
<path d="M201 0L217.454 31.5H184.546L201 0Z" fill="#FF6347"/>
<rect x="196" y="29" width="10" height="60" fill="#FF6347"/>
<path d="M19 2L35.4545 33.5H2.54552L19 2Z" fill="#FF6347"/>
<rect x="14" y="31" width="10" height="60" fill="#FF6347"/>
</svg>
