<svg width="321" height="163" viewBox="0 0 321 163" fill="none" xmlns="http://www.w3.org/2000/svg">
<path d="M2.20331 108.5L107 55.1222L211.797 108.5L107 161.878L2.20331 108.5Z" fill="white" stroke="black" stroke-width="2"/>
<path d="M109.203 54.5L214 1.12225L318.797 54.5L214 107.878L109.203 54.5Z" fill="white" stroke="black" stroke-width="2"/>
<path d="M32.7196 106.731C32.7095 106.731 36.1308 105.922 37.3218 105.327C39.0835 104.446 40.7481 103.263 42.548 102.363C45.387 100.943 48.0443 100.317 50.9723 98.8528C57.4246 95.6266 63.9412 92.9862 69.5759 88.4784C71.4757 86.9586 74.266 84.0431 76.5962 83.5252C78.5066 83.1007 85.6607 81.0966 86.7755 79.7031C89.6713 76.0834 95.5763 74.1869 99.412 71.6298" stroke="black" stroke-width="2" stroke-linecap="round"/>
<path d="M46.0581 115.857C47.3602 114.7 51.3062 113.556 53.0784 113.049C54.97 112.509 57.0878 110.943 59.0456 110.943C62.3189 110.943 66.3482 108.383 68.8739 106.419C71.0359 104.737 73.8143 102.925 75.5431 100.764C76.0533 100.126 79.1978 100.055 80.1453 99.7108C81.4914 99.2214 84.5196 98.3186 85.3715 97.2537C88.6517 93.1534 95.4333 91.1048 100.114 89.0244C102.207 88.0941 104.986 84.3927 107.134 84.2663C110.496 84.0685 114.34 79.8554 116.963 77.9481" stroke="black" stroke-width="2" stroke-linecap="round"/>
<path d="M83.2654 113.049C84.7532 112.863 87.4407 110.365 88.7256 109.539C91.4233 107.805 94.148 105.96 97.1499 104.781C100.846 103.329 104.335 100.528 108.187 99.6718C110.708 99.1117 114.249 97.2324 115.871 95.1476C117.684 92.8163 121.148 91.5294 123.983 90.5845" stroke="black" stroke-width="2" stroke-linecap="round"/>
<path d="M83.2654 132.004C88.9168 131.376 93.9186 124.447 99.4119 122.878C105.433 121.157 111.127 115.98 116.573 113.01C120.454 110.893 123.624 107.057 127.493 104.781C129.946 103.338 134.546 99.7108 137.321 99.7108" stroke="black" stroke-width="2" stroke-linecap="round"/>
<path d="M195 77.2931C200.651 76.6652 205.653 69.7363 211.147 68.1668C217.168 66.4465 222.862 61.2696 228.307 58.2995C232.189 56.1823 235.358 52.3463 239.228 50.0702C241.681 48.6271 246.28 45 249.056 45" stroke="black" stroke-width="2" stroke-linecap="round"/>
<path d="M107.134 136.216C113.537 136.216 117.131 132.378 122.228 129.547C127.316 126.72 132.792 124.536 137.672 121.825C141.593 119.647 144.87 118.449 148.008 115.311C150.348 112.971 155.719 111.355 156.978 108.837" stroke="black" stroke-width="2" stroke-linecap="round"/>
<path d="M146 52.1012C145.99 52.1012 149.411 51.2927 150.602 50.6972C152.364 49.8163 154.029 48.633 155.828 47.7331C158.667 46.3135 161.325 45.687 164.253 44.223C170.705 40.9968 177.222 38.3564 182.856 33.8486C184.756 32.3287 187.546 29.4132 189.877 28.8954C191.787 28.4709 198.941 26.4668 200.056 25.0733C202.952 21.4536 208.857 19.5571 212.692 17" stroke="black" stroke-width="2" stroke-linecap="round"/>
<path d="M159.339 61.2276C160.641 60.0702 164.587 58.9258 166.359 58.4195C168.25 57.879 170.368 56.3134 172.326 56.3134C175.599 56.3134 179.629 53.7537 182.154 51.7892C184.316 50.1077 187.095 48.2951 188.824 46.134C189.334 45.4963 192.478 45.4255 193.426 45.081C194.772 44.5915 197.8 43.6888 198.652 42.6239C201.932 38.5236 208.714 36.4749 213.394 34.3946C215.488 33.4643 218.266 29.7628 220.415 29.6365C223.776 29.4387 227.62 25.2256 230.243 23.3182" stroke="black" stroke-width="2" stroke-linecap="round"/>
<path d="M196.546 58.4194C198.034 58.2335 200.721 55.7353 202.006 54.9093C204.704 53.1751 207.428 51.3304 210.43 50.1511C214.126 48.6991 217.615 45.8981 221.468 45.042C223.988 44.4819 227.529 42.6025 229.151 40.5178C230.964 38.1865 234.428 36.8996 237.263 35.9547" stroke="black" stroke-width="2" stroke-linecap="round"/>
<path d="M220.415 81.5863C226.818 81.5863 230.411 77.7486 235.508 74.9171C240.597 72.0901 246.072 69.9061 250.953 67.1948C254.873 65.0168 258.15 63.8193 261.288 60.6816C263.628 58.3412 269 56.7247 270.258 54.2073" stroke="black" stroke-width="2" stroke-linecap="round"/>
<g filter="url(#filter0_d_114_420)">
<rect x="251.494" y="64" width="10" height="56" transform="rotate(15 251.494 64)" fill="#4169E1"/>
<rect x="251.494" y="64" width="10" height="56" transform="rotate(15 251.494 64)" stroke="black"/>
</g>
<path d="M259.669 53.7491L262.216 66.855L250.91 63.8254L259.669 53.7491Z" fill="black"/>
<path d="M183.006 113.326C184.049 115.644 183.608 118.433 181.931 121.106C180.257 123.775 177.377 126.272 173.677 127.936C169.976 129.6 166.197 130.096 163.089 129.577C159.977 129.057 157.599 127.536 156.556 125.217C155.514 122.898 155.955 120.109 157.632 117.437C159.306 114.768 162.186 112.27 165.886 110.607C169.586 108.943 173.366 108.447 176.474 108.966C179.585 109.486 181.964 111.007 183.006 113.326Z" fill="white" stroke="black"/>
<rect x="156.761" y="125.673" width="29" height="39" transform="rotate(-24.2073 156.761 125.673)" fill="#D9D9D9" stroke="black"/>
<defs>
<filter id="filter0_d_114_420" x="232.388" y="63.3876" width="33.3779" height="65.9048" filterUnits="userSpaceOnUse" color-interpolation-filters="sRGB">
<feFlood flood-opacity="0" result="BackgroundImageFix"/>
<feColorMatrix in="SourceAlpha" type="matrix" values="0 0 0 0 0 0 0 0 0 0 0 0 0 0 0 0 0 0 127 0" result="hardAlpha"/>
<feOffset dy="4"/>
<feGaussianBlur stdDeviation="2"/>
<feComposite in2="hardAlpha" operator="out"/>
<feColorMatrix type="matrix" values="0 0 0 0 0 0 0 0 0 0 0 0 0 0 0 0 0 0 0.25 0"/>
<feBlend mode="normal" in2="BackgroundImageFix" result="effect1_dropShadow_114_420"/>
<feBlend mode="normal" in="SourceGraphic" in2="effect1_dropShadow_114_420" result="shape"/>
</filter>
</defs>
</svg>
