<svg width="330" height="201" viewBox="0 0 330 201" fill="none" xmlns="http://www.w3.org/2000/svg">
<rect x="121.5" y="11.5" width="101" height="70" fill="#D9D9D9" stroke="black"/>
<path d="M160.5 39.5C160.5 41.3784 159.486 43.1171 157.771 44.4033C156.056 45.6896 153.664 46.5 151 46.5C148.336 46.5 145.944 45.6896 144.229 44.4033C142.514 43.1171 141.5 41.3784 141.5 39.5C141.5 37.6216 142.514 35.8829 144.229 34.5967C145.944 33.3104 148.336 32.5 151 32.5C153.664 32.5 156.056 33.3104 157.771 34.5967C159.486 35.8829 160.5 37.6216 160.5 39.5Z" fill="white" stroke="black"/>
<path d="M202.5 39.5C202.5 41.3784 201.486 43.1171 199.771 44.4033C198.056 45.6896 195.664 46.5 193 46.5C190.336 46.5 187.944 45.6896 186.229 44.4033C184.514 43.1171 183.5 41.3784 183.5 39.5C183.5 37.6216 184.514 35.8829 186.229 34.5967C187.944 33.3104 190.336 32.5 193 32.5C195.664 32.5 198.056 33.3104 199.771 34.5967C201.486 35.8829 202.5 37.6216 202.5 39.5Z" fill="white" stroke="black"/>
<path d="M182.5 62.5C182.5 63.7395 181.531 64.983 179.693 65.9462C177.878 66.8969 175.335 67.5 172.5 67.5C169.665 67.5 167.122 66.8969 165.307 65.9462C163.469 64.983 162.5 63.7395 162.5 62.5C162.5 61.2605 163.469 60.017 165.307 59.0538C167.122 58.1031 169.665 57.5 172.5 57.5C175.335 57.5 177.878 58.1031 179.693 59.0538C181.531 60.017 182.5 61.2605 182.5 62.5Z" fill="white" stroke="black"/>
<rect x="145.5" y="81.5" width="55" height="20" fill="#D9D9D9" stroke="black"/>
<rect x="117.5" y="101.5" width="108" height="99" fill="#D9D9D9" stroke="black"/>
<rect x="244.185" y="102.466" width="59.2507" height="14.1202" transform="rotate(-35.2257 244.185 102.466)" fill="#D9D9D9" stroke="black"/>
<path d="M248.5 114C248.5 120.372 243.555 125.5 237.5 125.5C231.445 125.5 226.5 120.372 226.5 114C226.5 107.628 231.445 102.5 237.5 102.5C243.555 102.5 248.5 107.628 248.5 114Z" fill="#D9D9D9" stroke="black"/>
<path d="M317.5 68C317.5 74.3715 312.555 79.5 306.5 79.5C300.445 79.5 295.5 74.3715 295.5 68C295.5 61.6285 300.445 56.5 306.5 56.5C312.555 56.5 317.5 61.6285 317.5 68Z" fill="#D9D9D9" stroke="black"/>
<g filter="url(#filter0_d_0_1)">
<rect x="288.552" y="17.7425" width="10" height="56" transform="rotate(-14.9901 288.552 17.7425)" fill="#4169E1"/>
<rect x="288.552" y="17.7425" width="10" height="56" transform="rotate(-14.9901 288.552 17.7425)" stroke="black"/>
</g>
<path d="M290.508 4.77779L299.265 14.8557L287.958 17.8832L290.508 4.77779Z" fill="black"/>
<path d="M98.5 59.5C98.5 63.773 95.1305 67.7672 89.3983 70.7229C83.6918 73.6653 75.7736 75.5 67 75.5C58.2264 75.5 50.3082 73.6653 44.6017 70.7229C38.8695 67.7672 35.5 63.773 35.5 59.5C35.5 55.227 38.8695 51.2328 44.6017 48.2771C50.3082 45.3347 58.2264 43.5 67 43.5C75.7736 43.5 83.6918 45.3347 89.3983 48.2771C95.1305 51.2328 98.5 55.227 98.5 59.5Z" fill="white" stroke="black"/>
<path d="M90.5 29.5C90.5 36.2798 85.5911 42.5206 77.4289 47.0951C69.2827 51.6605 57.9952 54.5 45.5 54.5C33.0048 54.5 21.7173 51.6605 13.5711 47.0951C5.40887 42.5206 0.5 36.2798 0.5 29.5C0.5 22.7202 5.40887 16.4794 13.5711 11.9049C21.7173 7.33951 33.0048 4.5 45.5 4.5C57.9952 4.5 69.2827 7.33951 77.4289 11.9049C85.5911 16.4794 90.5 22.7202 90.5 29.5Z" fill="white" stroke="black"/>
<path d="M40.358 35H38.5114L43.8523 20.4545H45.6705L51.0114 35H49.1648L44.8182 22.7557H44.7045L40.358 35ZM41.0398 29.3182H48.483V30.8807H41.0398V29.3182Z" fill="black"/>
<path d="M90.5 119.5C90.5 121.861 88.782 124.102 85.7769 125.781C82.7881 127.451 78.6253 128.5 74 128.5C69.3747 128.5 65.2119 127.451 62.2231 125.781C59.218 124.102 57.5 121.861 57.5 119.5C57.5 117.139 59.218 114.898 62.2231 113.219C65.2119 111.549 69.3747 110.5 74 110.5C78.6253 110.5 82.7881 111.549 85.7769 113.219C88.782 114.898 90.5 117.139 90.5 119.5Z" fill="white" stroke="black"/>
<path d="M77.5 107.5C77.5 111.773 74.1305 115.767 68.3983 118.723C62.6918 121.665 54.7736 123.5 46 123.5C37.2264 123.5 29.3082 121.665 23.6017 118.723C17.8695 115.767 14.5 111.773 14.5 107.5C14.5 103.227 17.8695 99.2328 23.6017 96.2771C29.3082 93.3347 37.2264 91.5 46 91.5C54.7736 91.5 62.6918 93.3347 68.3983 96.2771C74.1305 99.2328 77.5 103.227 77.5 107.5Z" fill="white" stroke="black"/>
<path d="M44.4091 113V101.364H48.4773C49.2879 101.364 49.9564 101.504 50.483 101.784C51.0095 102.061 51.4015 102.434 51.6591 102.903C51.9167 103.369 52.0455 103.886 52.0455 104.455C52.0455 104.955 51.9564 105.367 51.7784 105.693C51.6042 106.019 51.3731 106.277 51.0852 106.466C50.8011 106.655 50.4924 106.795 50.1591 106.886V107C50.5152 107.023 50.8731 107.148 51.233 107.375C51.5928 107.602 51.8939 107.928 52.1364 108.352C52.3788 108.777 52.5 109.295 52.5 109.909C52.5 110.492 52.3674 111.017 52.1023 111.483C51.8371 111.949 51.4186 112.318 50.8466 112.591C50.2746 112.864 49.5303 113 48.6136 113H44.4091ZM45.8182 111.75H48.6136C49.5341 111.75 50.1875 111.572 50.5739 111.216C50.964 110.856 51.1591 110.42 51.1591 109.909C51.1591 109.515 51.0587 109.152 50.858 108.818C50.6572 108.481 50.3712 108.212 50 108.011C49.6288 107.807 49.1894 107.705 48.6818 107.705H45.8182V111.75ZM45.8182 106.477H48.4318C48.8561 106.477 49.2386 106.394 49.5795 106.227C49.9242 106.061 50.197 105.826 50.3977 105.523C50.6023 105.22 50.7045 104.864 50.7045 104.455C50.7045 103.943 50.5265 103.509 50.1705 103.153C49.8144 102.794 49.25 102.614 48.4773 102.614H45.8182V106.477Z" fill="black"/>
<circle cx="172.5" cy="150.5" r="33" fill="#FF6347" stroke="black"/>
<mask id="path-19-inside-1_0_1" fill="white">
<path d="M205.244 143.422C206.795 150.599 205.946 158.087 202.825 164.735C199.705 171.382 194.487 176.82 187.975 180.212C181.462 183.604 174.015 184.762 166.78 183.508C159.545 182.254 152.922 178.658 147.93 173.272C142.939 167.887 139.855 161.01 139.153 153.701C138.452 146.391 140.171 139.054 144.047 132.817C147.923 126.58 153.741 121.79 160.606 119.183C167.47 116.576 175.001 116.296 182.04 118.387L172.5 150.5L205.244 143.422Z"/>
</mask>
<path d="M205.244 143.422C206.795 150.599 205.946 158.087 202.825 164.735C199.705 171.382 194.487 176.82 187.975 180.212C181.462 183.604 174.015 184.762 166.78 183.508C159.545 182.254 152.922 178.658 147.93 173.272C142.939 167.887 139.855 161.01 139.153 153.701C138.452 146.391 140.171 139.054 144.047 132.817C147.923 126.58 153.741 121.79 160.606 119.183C167.47 116.576 175.001 116.296 182.04 118.387L172.5 150.5L205.244 143.422Z" fill="#3CB371" stroke="black" stroke-width="2" mask="url(#path-19-inside-1_0_1)"/>
<defs>
<filter id="filter0_d_0_1" x="283.939" y="14.5437" width="33.3688" height="65.9055" filterUnits="userSpaceOnUse" color-interpolation-filters="sRGB">
<feFlood flood-opacity="0" result="BackgroundImageFix"/>
<feColorMatrix in="SourceAlpha" type="matrix" values="0 0 0 0 0 0 0 0 0 0 0 0 0 0 0 0 0 0 127 0" result="hardAlpha"/>
<feOffset dy="4"/>
<feGaussianBlur stdDeviation="2"/>
<feComposite in2="hardAlpha" operator="out"/>
<feColorMatrix type="matrix" values="0 0 0 0 0 0 0 0 0 0 0 0 0 0 0 0 0 0 0.25 0"/>
<feBlend mode="normal" in2="BackgroundImageFix" result="effect1_dropShadow_0_1"/>
<feBlend mode="normal" in="SourceGraphic" in2="effect1_dropShadow_0_1" result="shape"/>
</filter>
</defs>
</svg>
