<svg width="405" height="214" viewBox="0 0 405 214" fill="none" xmlns="http://www.w3.org/2000/svg">
<path d="M64.2076 199.611L122.768 141.085H329.843L402.878 199.611H64.2076Z" fill="#C0C0C0" stroke="black"/>
<path d="M104.356 187.044L142.845 148.361H319.126L364.138 187.044H104.356Z" fill="#808080" stroke="black"/>
<path d="M124.399 5.5H328.18V140.747H124.399V5.5Z" fill="#C0C0C0" stroke="black"/>
<rect x="64.1692" y="199.949" width="337.625" height="13.5506" fill="#C0C0C0" stroke="black"/>
<line y1="-0.5" x2="190.063" y2="-0.5" transform="matrix(0.999975 -0.00705914 0.00722719 0.999974 134.606 159.766)" stroke="black"/>
<line y1="-0.5" x2="211.478" y2="-0.5" transform="matrix(0.999979 -0.00641855 0.00657136 0.999978 123.899 169.06)" stroke="black"/>
<line y1="-0.5" x2="228.877" y2="-0.5" transform="matrix(0.999982 -0.00593061 0.0060718 0.999982 118.545 178.319)" stroke="black"/>
<line y1="-0.5" x2="37.0613" y2="-0.5" transform="matrix(0.0361133 0.999348 -0.999378 0.0352746 232.312 151.829)" stroke="black"/>
<line x1="223.443" y1="151.829" x2="223.443" y2="188.867" stroke="black"/>
<line y1="-0.5" x2="37.1346" y2="-0.5" transform="matrix(-0.0720858 0.997398 -0.997518 -0.070418 214.913 151.829)" stroke="black"/>
<line y1="-0.5" x2="38.7325" y2="-0.5" transform="matrix(-0.138224 0.990401 -0.990836 -0.135069 206.882 150.506)" stroke="black"/>
<line y1="-0.5" x2="40.7745" y2="-0.5" transform="matrix(-0.229777 0.973243 -0.974426 -0.224707 198.851 150.506)" stroke="black"/>
<line y1="-0.5" x2="41.089" y2="-0.5" transform="matrix(-0.358315 0.933601 -0.936368 -0.35102 190.821 150.506)" stroke="black"/>
<line y1="-0.5" x2="43.9335" y2="-0.5" transform="matrix(-0.487442 0.873156 -0.877963 -0.478728 182.79 150.506)" stroke="black"/>
<line y1="-0.5" x2="48.359" y2="-0.5" transform="matrix(-0.608897 0.79325 -0.800097 -0.599871 172.083 150.506)" stroke="black"/>
<line y1="-0.5" x2="52.7019" y2="-0.5" transform="matrix(-0.685703 0.727882 -0.735878 -0.677115 158.698 150.506)" stroke="black"/>
<line y1="-0.5" x2="38.454" y2="-0.5" transform="matrix(0.0696123 0.997574 -0.997685 0.0680012 241.681 151.829)" stroke="black"/>
<line y1="-0.5" x2="38.5703" y2="-0.5" transform="matrix(0.104104 0.994567 -0.994814 0.101708 252.389 151.829)" stroke="black"/>
<line y1="-0.5" x2="38.7325" y2="-0.5" transform="matrix(0.138224 0.990401 -0.990836 0.135069 263.096 151.829)" stroke="black"/>
<line y1="-0.5" x2="37.8986" y2="-0.5" transform="matrix(0.211898 0.977292 -0.978302 0.207184 272.466 151.829)" stroke="black"/>
<line y1="-0.5" x2="38.2046" y2="-0.5" transform="matrix(0.245234 0.969464 -0.970807 0.239863 283.173 151.829)" stroke="black"/>
<line y1="-0.5" x2="41.089" y2="-0.5" transform="matrix(0.358315 0.933601 -0.936368 0.35102 292.542 151.829)" stroke="black"/>
<line y1="-0.5" x2="43.2968" y2="-0.5" transform="matrix(0.463696 0.885994 -0.890405 0.455168 303.25 151.829)" stroke="black"/>
<line y1="-0.5" x2="49.1854" y2="-0.5" transform="matrix(0.625878 0.779921 -0.787039 0.616903 312.619 151.829)" stroke="black"/>
<rect x="139" y="19" width="174" height="111" fill="white"/>
<rect x="232" y="31" width="62" height="17" rx="8.5" fill="#D9D9D9"/>
<path d="M289.5 42L295.995 54L283.005 48L289.5 42Z" fill="#D9D9D9"/>
<rect width="62" height="17" rx="8.5" transform="matrix(-1 0 0 1 220.995 50)" fill="#D9D9D9"/>
<path d="M163.495 61L157 73L169.99 67L163.495 61Z" fill="#D9D9D9"/>
<rect x="233" y="73" width="62" height="17" rx="8.5" fill="#D9D9D9"/>
<path d="M290.5 84L296.995 96L284.005 90L290.5 84Z" fill="#D9D9D9"/>
<rect x="250" y="100" width="42.6236" height="17" rx="8.5" fill="#D9D9D9"/>
<path d="M289.53 111L293.995 123L285.065 117L289.53 111Z" fill="#D9D9D9"/>
<path d="M158 88.8561C158 95.8675 152.478 102.341 143.265 107.091C134.078 111.828 121.352 114.773 107.268 114.773C93.1832 114.773 80.4569 111.828 71.2701 107.091C62.0576 102.341 56.5354 95.8675 56.5354 88.8561C56.5354 81.8446 62.0576 75.3713 71.2701 70.6211C80.4569 65.8841 93.1832 62.9394 107.268 62.9394C121.352 62.9394 134.078 65.8841 143.265 70.6211C152.478 75.3713 158 81.8446 158 88.8561Z" fill="white" stroke="black"/>
<path d="M145.192 40.8258C145.192 51.8377 137.222 61.9099 124.111 69.2578C111.017 76.5966 92.8925 81.1515 72.846 81.1515C52.7994 81.1515 34.6754 76.5966 21.5805 69.2578C8.46967 61.9099 0.5 51.8377 0.5 40.8258C0.5 29.8138 8.46967 19.7416 21.5805 12.3938C34.6754 5.0549 52.7994 0.5 72.846 0.5C92.8925 0.5 111.017 5.0549 124.111 12.3938C137.222 19.7416 145.192 29.8138 145.192 40.8258Z" fill="white" stroke="black"/>
<rect x="47.6036" y="20.5529" width="27.4615" height="18.8114" transform="rotate(-17.2821 47.6036 20.5529)" fill="#D9D9D9" stroke="black"/>
<path d="M59.5201 24.6502C59.6346 25.0181 59.5518 25.449 59.2515 25.8647C58.9511 26.2805 58.4488 26.6516 57.8064 26.8515C57.1639 27.0514 56.5397 27.0307 56.0564 26.8587C55.5733 26.6868 55.2607 26.3789 55.1463 26.0111C55.0318 25.6432 55.1146 25.2123 55.4149 24.7966C55.7153 24.3808 56.2176 24.0097 56.86 23.8098C57.5025 23.6099 58.1266 23.6306 58.61 23.8026C59.0931 23.9745 59.4057 24.2824 59.5201 24.6502Z" fill="white" stroke="black"/>
<path d="M70.7105 21.1687C70.8249 21.5365 70.7422 21.9674 70.4419 22.3831C70.1414 22.7989 69.6391 23.1701 68.9967 23.3699C68.3543 23.5698 67.7301 23.5491 67.2468 23.3772C66.7637 23.2052 66.451 22.8973 66.3366 22.5295C66.2221 22.1616 66.3049 21.7307 66.6052 21.3151C66.9056 20.8992 67.4079 20.5281 68.0504 20.3282C68.6928 20.1284 69.317 20.149 69.8003 20.321C70.2834 20.4929 70.596 20.8008 70.7105 21.1687Z" fill="white" stroke="black"/>
<path d="M67.2883 28.9546C67.3313 29.0927 67.2903 29.3695 66.9156 29.7432C66.5598 30.0981 65.9868 30.4432 65.2755 30.6645C64.5642 30.8858 63.8966 30.9267 63.4023 30.8363C62.8817 30.7411 62.6909 30.5364 62.648 30.3983C62.605 30.2603 62.646 29.9835 63.0207 29.6098C63.3765 29.2549 63.9495 28.9098 64.6608 28.6885C65.3721 28.4672 66.0397 28.4263 66.534 28.5167C67.0546 28.6119 67.2454 28.8166 67.2883 28.9546Z" fill="white" stroke="black"/>
<rect x="59.8007" y="37.2141" width="14.6259" height="4.85972" transform="rotate(-17.2821 59.8007 37.2141)" fill="#D9D9D9" stroke="black"/>
<rect x="53.9983" y="44.8639" width="29.4147" height="26.9034" transform="rotate(-17.2821 53.9983 44.8639)" fill="#D9D9D9" stroke="black"/>
<rect x="87.8861" y="34.3161" width="15.812" height="3.21905" transform="rotate(-52.5078 87.8861 34.3161)" fill="#D9D9D9" stroke="black"/>
<path d="M89.1422 37.2051C89.6156 38.7266 88.8114 40.2911 87.4018 40.7297C85.9922 41.1683 84.4424 40.3361 83.969 38.8146C83.4957 37.2932 84.2998 35.7286 85.7094 35.2901C87.119 34.8515 88.6689 35.6837 89.1422 37.2051Z" fill="#D9D9D9" stroke="black"/>
<path d="M103.713 19.2292C104.187 20.7507 103.382 22.3153 101.973 22.7538C100.563 23.1924 99.0134 22.3602 98.54 20.8387C98.0667 19.3173 98.8708 17.7527 100.28 17.3142C101.69 16.8756 103.24 17.7078 103.713 19.2292Z" fill="#D9D9D9" stroke="black"/>
<g filter="url(#filter0_d_0_1)">
<rect x="92.1784" y="8.13135" width="2.79034" height="15.6259" transform="rotate(-32.2722 92.1784 8.13135)" fill="#4169E1"/>
<rect x="92.1784" y="8.13135" width="2.79034" height="15.6259" transform="rotate(-32.2722 92.1784 8.13135)" stroke="black"/>
</g>
<path d="M91.625 4.51493L94.7936 6.47412L92.032 8.21805L91.625 4.51493Z" fill="black"/>
<defs>
<filter id="filter0_d_0_1" x="87.4887" y="5.95172" width="20.0821" height="24.0814" filterUnits="userSpaceOnUse" color-interpolation-filters="sRGB">
<feFlood flood-opacity="0" result="BackgroundImageFix"/>
<feColorMatrix in="SourceAlpha" type="matrix" values="0 0 0 0 0 0 0 0 0 0 0 0 0 0 0 0 0 0 127 0" result="hardAlpha"/>
<feOffset dy="4"/>
<feGaussianBlur stdDeviation="2"/>
<feComposite in2="hardAlpha" operator="out"/>
<feColorMatrix type="matrix" values="0 0 0 0 0 0 0 0 0 0 0 0 0 0 0 0 0 0 0.25 0"/>
<feBlend mode="normal" in2="BackgroundImageFix" result="effect1_dropShadow_0_1"/>
<feBlend mode="normal" in="SourceGraphic" in2="effect1_dropShadow_0_1" result="shape"/>
</filter>
</defs>
</svg>
