<svg width="359" height="236" viewBox="0 0 359 236" fill="none" xmlns="http://www.w3.org/2000/svg">
<path d="M77.2076 227.683L105.874 199.034H208.824L244.576 227.683H77.2076Z" fill="#C0C0C0" stroke="black"/>
<path d="M97.2028 221.424L115.875 202.658H203.481L225.318 221.424H97.2028Z" fill="#808080" stroke="black"/>
<path d="M106.833 131.5H207.833V198.364H106.833V131.5Z" fill="#C0C0C0" stroke="black"/>
<rect x="76.8333" y="228.354" width="167.667" height="6.24757" fill="#C0C0C0" stroke="black"/>
<line y1="-0.5" x2="94.669" y2="-0.5" transform="matrix(0.999975 -0.00705914 0.00722719 0.999974 111.667 208.088)" stroke="black"/>
<line y1="-0.5" x2="105.336" y2="-0.5" transform="matrix(0.999979 -0.00641855 0.00657136 0.999978 106.333 212.717)" stroke="black"/>
<line y1="-0.5" x2="114.002" y2="-0.5" transform="matrix(0.999982 -0.00593061 0.0060718 0.999982 103.667 217.329)" stroke="black"/>
<line y1="-0.5" x2="18.46" y2="-0.5" transform="matrix(0.0361133 0.999348 -0.999378 0.0352746 160.333 204.135)" stroke="black"/>
<line x1="156.167" y1="204.135" x2="156.167" y2="222.583" stroke="black"/>
<line y1="-0.5" x2="18.4965" y2="-0.5" transform="matrix(-0.0720858 0.997398 -0.997518 -0.070418 151.667 204.135)" stroke="black"/>
<line y1="-0.5" x2="19.2924" y2="-0.5" transform="matrix(-0.138224 0.990401 -0.990836 -0.135069 147.667 203.476)" stroke="black"/>
<line y1="-0.5" x2="20.3095" y2="-0.5" transform="matrix(-0.229777 0.973243 -0.974426 -0.224707 143.667 203.476)" stroke="black"/>
<line y1="-0.5" x2="20.4662" y2="-0.5" transform="matrix(-0.358315 0.933601 -0.936368 -0.35102 139.667 203.476)" stroke="black"/>
<line y1="-0.5" x2="21.883" y2="-0.5" transform="matrix(-0.487442 0.873156 -0.877963 -0.478728 135.667 203.476)" stroke="black"/>
<line y1="-0.5" x2="24.0873" y2="-0.5" transform="matrix(-0.608897 0.79325 -0.800097 -0.599871 130.333 203.476)" stroke="black"/>
<line y1="-0.5" x2="26.2504" y2="-0.5" transform="matrix(-0.685703 0.727882 -0.735878 -0.677115 123.667 203.476)" stroke="black"/>
<line y1="-0.5" x2="19.1537" y2="-0.5" transform="matrix(0.0696123 0.997574 -0.997685 0.0680012 165 204.135)" stroke="black"/>
<line y1="-0.5" x2="19.2116" y2="-0.5" transform="matrix(0.104104 0.994567 -0.994814 0.101708 170.333 204.135)" stroke="black"/>
<line y1="-0.5" x2="19.2924" y2="-0.5" transform="matrix(0.138224 0.990401 -0.990836 0.135069 175.667 204.135)" stroke="black"/>
<line y1="-0.5" x2="18.877" y2="-0.5" transform="matrix(0.211898 0.977292 -0.978302 0.207184 180.333 204.135)" stroke="black"/>
<line y1="-0.5" x2="19.0294" y2="-0.5" transform="matrix(0.245234 0.969464 -0.970807 0.239863 185.667 204.135)" stroke="black"/>
<line y1="-0.5" x2="20.4662" y2="-0.5" transform="matrix(0.358315 0.933601 -0.936368 0.35102 190.333 204.135)" stroke="black"/>
<line y1="-0.5" x2="21.5659" y2="-0.5" transform="matrix(0.463696 0.885994 -0.890405 0.455168 195.667 204.135)" stroke="black"/>
<line y1="-0.5" x2="24.4989" y2="-0.5" transform="matrix(0.625878 0.779921 -0.787039 0.616903 200.333 204.135)" stroke="black"/>
<rect x="113.855" y="137.973" width="86.6682" height="55.2883" fill="white"/>
<rect x="160.178" y="143.95" width="30.8818" height="8.46758" rx="4.23379" fill="#D9D9D9"/>
<path d="M188.818 149.429L192.053 155.406L185.583 152.418L188.818 149.429Z" fill="#D9D9D9"/>
<rect width="30.8818" height="8.46758" rx="4.23379" transform="matrix(-1 0 0 1 154.696 153.414)" fill="#D9D9D9"/>
<path d="M126.056 158.893L122.821 164.87L129.291 161.882L126.056 158.893Z" fill="#D9D9D9"/>
<rect x="160.676" y="164.87" width="30.8818" height="8.46758" rx="4.23379" fill="#D9D9D9"/>
<path d="M189.316 170.349L192.551 176.326L186.081 173.338L189.316 170.349Z" fill="#D9D9D9"/>
<rect x="169.143" y="178.319" width="21.2305" height="8.46758" rx="4.23379" fill="#D9D9D9"/>
<path d="M188.833 183.798L191.057 189.775L186.609 186.786L188.833 183.798Z" fill="#D9D9D9"/>
<path fill-rule="evenodd" clip-rule="evenodd" d="M6.29593 58.5895C2.66658 60.0286 0.347699 63.3549 0.0193739 66.9948L66.825 40.5061C64.0916 38.0802 60.1233 37.2468 56.494 38.6858L6.29593 58.5895ZM69.6601 44.7607L0.870161 72.0361L24.644 131.995C26.6797 137.129 32.4918 139.641 37.6258 137.605L87.8238 117.701C92.9579 115.666 95.4696 109.853 93.4339 104.719L69.6601 44.7607ZM7.35294 77.5337C7.04759 76.7636 7.42435 75.8918 8.19445 75.5865L36.0822 64.5288C36.8523 64.2235 37.7242 64.6003 38.0295 65.3704C38.3349 66.1405 37.9581 67.0123 37.188 67.3176L9.30021 78.3752C8.53011 78.6806 7.65828 78.3038 7.35294 77.5337ZM10.406 81.164C9.63587 81.4694 9.25911 82.3412 9.56446 83.1113C9.8698 83.8814 10.7416 84.2581 11.5117 83.9528L39.3995 72.8952C40.1696 72.5898 40.5464 71.718 40.241 70.9479C39.9357 70.1778 39.0639 69.8011 38.2938 70.1064L10.406 81.164ZM11.776 88.6888C11.4706 87.9187 11.8474 87.0469 12.6175 86.7416L40.5053 75.684C41.2754 75.3786 42.1472 75.7554 42.4526 76.5255C42.7579 77.2956 42.3811 78.1674 41.611 78.4727L13.7232 89.5304C12.9531 89.8357 12.0813 89.4589 11.776 88.6888ZM14.829 92.3191C14.0589 92.6245 13.6822 93.4963 13.9875 94.2664C14.2928 95.0365 15.1647 95.4133 15.9348 95.1079L43.8226 84.0503C44.5927 83.745 44.9694 82.8731 44.6641 82.103C44.3587 81.3329 43.4869 80.9562 42.7168 81.2615L14.829 92.3191ZM16.199 99.844C15.8937 99.0739 16.2704 98.202 17.0405 97.8967L44.9283 86.8391C45.6984 86.5337 46.5703 86.9105 46.8756 87.6806C47.1809 88.4507 46.8042 89.3225 46.0341 89.6279L18.1463 100.685C17.3762 100.991 16.5044 100.614 16.199 99.844ZM19.252 103.474C18.4819 103.78 18.1052 104.651 18.4105 105.422C18.7159 106.192 19.5877 106.568 20.3578 106.263L48.2456 95.2054C49.0157 94.9001 49.3925 94.0283 49.0871 93.2582C48.7818 92.4881 47.9099 92.1113 47.1398 92.4166L19.252 103.474ZM20.6221 110.999C20.3167 110.229 20.6935 109.357 21.4636 109.052L49.3514 97.9942C50.1215 97.6889 50.9933 98.0656 51.2986 98.8357C51.604 99.6058 51.2272 100.478 50.4571 100.783L22.5693 111.841C21.7992 112.146 20.9274 111.769 20.6221 110.999ZM23.6751 114.629C22.905 114.935 22.5282 115.807 22.8336 116.577C23.1389 117.347 24.0108 117.723 24.7809 117.418L52.6686 106.361C53.4387 106.055 53.8155 105.183 53.5102 104.413C53.2048 103.643 52.333 103.266 51.5629 103.572L23.6751 114.629ZM25.0451 122.154C24.7398 121.384 25.1165 120.512 25.8866 120.207L53.7744 109.149C54.5445 108.844 55.4163 109.221 55.7217 109.991C56.027 110.761 55.6503 111.633 54.8802 111.938L26.9924 122.996C26.2223 123.301 25.3504 122.924 25.0451 122.154ZM28.0981 125.784C27.328 126.09 26.9513 126.962 27.2566 127.732C27.562 128.502 28.4338 128.879 29.2039 128.573L57.0917 117.516C57.8618 117.21 58.2385 116.339 57.9332 115.568C57.6279 114.798 56.756 114.422 55.9859 114.727L28.0981 125.784ZM42.6775 63.5274C42.3721 62.7573 42.7489 61.8855 43.519 61.5802L65.8292 52.7341C66.5993 52.4287 67.4712 52.8055 67.7765 53.5756C67.8411 53.7386 67.8752 53.9061 67.8814 54.0718C67.9905 54.1969 68.0805 54.3422 68.1451 54.5052L74.4111 70.3083C74.7164 71.0784 74.3397 71.9502 73.5696 72.2555L51.2593 81.1016C50.4892 81.407 49.6174 81.0302 49.312 80.2601L43.0461 64.457C42.9814 64.294 42.9474 64.1265 42.9411 63.9608C42.8321 63.8358 42.7421 63.6904 42.6775 63.5274ZM71.0694 70.0196L65.5406 56.0757L46.0191 63.8161L51.5479 77.76L71.0694 70.0196ZM51.5236 85.8377C51.2182 85.0676 51.595 84.1957 52.3651 83.8904L74.6753 75.0443C75.4454 74.739 76.3172 75.1157 76.6226 75.8858C76.9279 76.6559 76.5512 77.5277 75.7811 77.8331L53.4708 86.6792C52.7007 86.9845 51.8289 86.6078 51.5236 85.8377ZM54.5766 89.468C53.8065 89.7733 53.4297 90.6451 53.7351 91.4152C54.0404 92.1853 54.9123 92.5621 55.6824 92.2567L77.9926 83.4107C78.7627 83.1053 79.1395 82.2335 78.8341 81.4634C78.5288 80.6933 77.6569 80.3165 76.8868 80.6219L54.5766 89.468ZM55.9466 96.9928C55.6413 96.2227 56.018 95.3509 56.7881 95.0455L79.0984 86.1994C79.8685 85.8941 80.7403 86.2708 81.0456 87.0409C81.351 87.811 80.9742 88.6829 80.2041 88.9882L57.8939 97.8343C57.1238 98.1396 56.252 97.7629 55.9466 96.9928ZM58.9996 100.623C58.2295 100.928 57.8528 101.8 58.1581 102.57C58.4635 103.34 59.3353 103.717 60.1054 103.412L82.4156 94.5658C83.1857 94.2604 83.5625 93.3886 83.2571 92.6185C82.9518 91.8484 82.08 91.4716 81.3099 91.777L58.9996 100.623ZM60.3696 108.148C60.0643 107.378 60.4411 106.506 61.2112 106.201L83.5214 97.3546C84.2915 97.0492 85.1633 97.426 85.4687 98.1961C85.774 98.9662 85.3973 99.838 84.6272 100.143L62.3169 108.989C61.5468 109.295 60.675 108.918 60.3696 108.148ZM63.4227 111.778C62.6526 112.084 62.2758 112.955 62.5812 113.725C62.8865 114.496 63.7583 114.872 64.5284 114.567L86.8387 105.721C87.6088 105.416 87.9855 104.544 87.6802 103.774C87.3748 103.004 86.503 102.627 85.7329 102.932L63.4227 111.778Z" fill="#696969"/>
<rect x="204.31" y="44.4856" width="102.509" height="65.8388" rx="20" transform="rotate(20.3028 204.31 44.4856)" fill="#D9D9D9"/>
<circle cx="241.985" cy="93.9686" r="22.8353" transform="rotate(20.3028 241.985 93.9686)" fill="#696969" stroke="black"/>
<path d="M235.176 83.3555C236.511 79.7456 241.254 78.9352 243.712 81.8968L253.855 94.1152C256.314 97.0768 254.644 101.589 250.85 102.237L235.197 104.912C231.403 105.561 228.33 101.859 229.666 98.2488L235.176 83.3555Z" fill="white"/>
<path d="M313 94.1533C314.763 92.6142 316.046 90.5816 316.717 88.2657C317.388 85.9498 317.422 83.4348 316.816 80.9809C316.21 78.527 314.986 76.2232 313.271 74.308C311.555 72.3927 309.411 70.9355 307.059 70.0871L306.008 74.0697C307.646 74.6604 309.139 75.675 310.334 77.0086C311.528 78.3421 312.38 79.9462 312.802 81.6548C313.224 83.3634 313.2 85.1145 312.733 86.727C312.266 88.3394 311.372 89.7547 310.145 90.8264L313 94.1533Z" fill="black"/>
<path d="M326.196 96.3126C328.598 94.2145 330.335 91.429 331.225 88.2441C332.116 85.0591 332.128 81.5906 331.261 78.1971C330.393 74.8037 328.678 71.6087 326.292 68.9426C323.906 66.2765 320.937 64.2361 317.69 63.0326L316.649 67.1373C319.157 68.067 321.451 69.643 323.294 71.7024C325.137 73.7618 326.462 76.2298 327.132 78.851C327.802 81.4722 327.792 84.1514 327.104 86.6116C326.416 89.0717 325.075 91.2234 323.219 92.844L326.196 96.3126Z" fill="black"/>
<path d="M341.372 97.9486C344.163 95.5121 346.179 92.2773 347.213 88.5787C348.247 84.8801 348.262 80.852 347.254 76.9113C346.247 72.9705 344.255 69.2602 341.485 66.164C338.714 63.0679 335.265 60.6985 331.495 59.3008L330.286 64.0676C333.198 65.1472 335.862 66.9775 338.002 69.369C340.143 71.7606 341.681 74.6266 342.459 77.6706C343.237 80.7145 343.226 83.8259 342.427 86.6829C341.629 89.5398 340.071 92.0385 337.916 93.9206L341.372 97.9486Z" fill="black"/>
<path d="M199.482 32.4758C197.303 31.6256 194.965 31.3158 192.709 31.5785C190.453 31.8412 188.362 32.6668 186.651 33.9699C184.941 35.273 183.673 37.0062 182.98 38.9904C182.286 40.9746 182.192 43.1375 182.707 45.2556L186.533 44.7234C186.174 43.2487 186.24 41.7427 186.723 40.3612C187.206 38.9797 188.088 37.7728 189.279 36.8655C190.47 35.9582 191.926 35.3834 193.497 35.2005C195.068 35.0176 196.696 35.2333 198.213 35.8252L199.482 32.4758Z" fill="black"/>
<path d="M194.45 21.4742C191.48 20.3152 188.287 19.9079 185.201 20.2942C182.115 20.6805 179.249 21.8464 176.899 23.6714C174.549 25.4964 172.8 27.9141 171.834 30.6745C170.867 33.4349 170.718 36.4377 171.402 39.3723L175.324 38.7913C174.795 36.5246 174.911 34.2051 175.657 32.0729C176.404 29.9407 177.754 28.0731 179.57 26.6634C181.385 25.2537 183.599 24.3531 185.983 24.0547C188.366 23.7563 190.833 24.071 193.127 24.9662L194.45 21.4742Z" fill="black"/>
<path d="M187.964 9.10811C184.515 7.76226 180.806 7.28916 177.223 7.73776C173.64 8.18637 170.311 9.54038 167.582 11.6597C164.853 13.7791 162.822 16.5868 161.7 19.7924C160.577 22.998 160.404 26.4852 161.198 29.893L165.752 29.2184C165.139 26.586 165.273 23.8924 166.14 21.4163C167.007 18.9402 168.576 16.7714 170.684 15.1343C172.792 13.4973 175.363 12.4514 178.131 12.1049C180.899 11.7583 183.763 12.1238 186.427 13.1634L187.964 9.10811Z" fill="black"/>
</svg>
